<!--
    The width, height and class attributes were removed, as they are configured
    in the application's core settings

    @see  /app/config/blade-icons.php
    @see https://github.com/blade-ui-kit/blade-icons
    @see https://icons.getbootstrap.com/icons/list-nested/
-->

<svg xmlns="http://www.w3.org/2000/svg" fill="currentColor" viewBox="0 0 16 16">

    <path fill-rule="evenodd" d="M4.5 11.5A.5.5 0 0 1 5 11h10a.5.5 0 0 1 0 1H5a.5.5 0 0 1-.5-.5zm-2-4A.5.5 0 0 1 3 7h10a.5.5 0 0 1 0 1H3a.5.5 0 0 1-.5-.5zm-2-4A.5.5 0 0 1 1 3h10a.5.5 0 0 1 0 1H1a.5.5 0 0 1-.5-.5z"/>

</svg>
